<svg width="558" height="88" viewBox="0 0 558 88" fill="none" xmlns="http://www.w3.org/2000/svg">
<path fill-rule="evenodd" clip-rule="evenodd" d="M16 1.68018V85.6802L20 85.6802V1.68018H16ZM23 1.68018V85.6802L31.36 85.6802V13.3202H33.52L47.92 85.6802H74.08L88.48 13.3202H90.64V85.6802H106V1.68018H76.6L62.08 74.8802H59.92L45.4 1.68018H23ZM12 25.6802C12 28.9939 9.31371 31.6802 6 31.6802C2.68629 31.6802 0 28.9939 0 25.6802C0 22.3665 2.68629 19.6802 6 19.6802C9.31371 19.6802 12 22.3665 12 25.6802ZM6 67.6802C9.31371 67.6802 12 64.9939 12 61.6802C12 58.3665 9.31371 55.6802 6 55.6802C2.68629 55.6802 0 58.3665 0 61.6802C0 64.9939 2.68629 67.6802 6 67.6802Z" fill="white"/>
<path d="M532.986 87.36C525.226 87.36 518.866 85.68 513.906 82.32C508.946 78.96 505.946 74.16 504.906 67.92L518.826 64.32C519.386 67.12 520.306 69.32 521.586 70.92C522.946 72.52 524.586 73.68 526.506 74.4C528.506 75.04 530.666 75.36 532.986 75.36C536.506 75.36 539.106 74.76 540.786 73.56C542.466 72.28 543.306 70.72 543.306 68.88C543.306 67.04 542.506 65.64 540.906 64.68C539.306 63.64 536.746 62.8 533.226 62.16L529.866 61.56C525.706 60.76 521.906 59.68 518.466 58.32C515.026 56.88 512.266 54.92 510.186 52.44C508.106 49.96 507.066 46.76 507.066 42.84C507.066 36.92 509.226 32.4 513.546 29.28C517.866 26.08 523.546 24.48 530.586 24.48C537.226 24.48 542.746 25.96 547.146 28.92C551.546 31.88 554.426 35.76 555.786 40.56L541.746 44.88C541.106 41.84 539.786 39.68 537.786 38.4C535.866 37.12 533.466 36.48 530.586 36.48C527.706 36.48 525.506 37 523.986 38.04C522.466 39 521.706 40.36 521.706 42.12C521.706 44.04 522.506 45.48 524.106 46.44C525.706 47.32 527.866 48 530.586 48.48L533.946 49.08C538.426 49.88 542.466 50.96 546.066 52.32C549.746 53.6 552.626 55.48 554.706 57.96C556.866 60.36 557.946 63.64 557.946 67.8C557.946 74.04 555.666 78.88 551.106 82.32C546.626 85.68 540.586 87.36 532.986 87.36Z" fill="white"/>
<path d="M461.805 86.6402C457.165 86.6402 453.085 85.6002 449.565 83.5202C446.125 81.3602 443.445 78.4002 441.525 74.6402C439.605 70.8802 438.645 66.5602 438.645 61.6802V26.1602H453.765V60.4802C453.765 64.9602 454.845 68.3202 457.005 70.5602C459.245 72.8002 462.405 73.9202 466.485 73.9202C471.125 73.9202 474.725 72.4002 477.285 69.3602C479.845 66.2402 481.125 61.9202 481.125 56.4002V26.1602H496.245V85.6802H481.365V77.8802H479.205C478.245 79.8802 476.445 81.8402 473.805 83.7602C471.165 85.6802 467.165 86.6402 461.805 86.6402Z" fill="white"/>
<path d="M401.57 87.36C395.81 87.36 390.57 86.16 385.85 83.76C381.21 81.36 377.53 77.88 374.81 73.32C372.09 68.76 370.73 63.24 370.73 56.76V55.08C370.73 48.6 372.09 43.08 374.81 38.52C377.53 33.96 381.21 30.48 385.85 28.08C390.57 25.68 395.81 24.48 401.57 24.48C407.25 24.48 412.13 25.48 416.21 27.48C420.29 29.48 423.57 32.24 426.05 35.76C428.61 39.2 430.29 43.12 431.09 47.52L416.45 50.64C416.13 48.24 415.41 46.08 414.29 44.16C413.17 42.24 411.57 40.72 409.49 39.6C407.49 38.48 404.97 37.92 401.93 37.92C398.89 37.92 396.13 38.6 393.65 39.96C391.25 41.24 389.33 43.2 387.89 45.84C386.53 48.4 385.85 51.56 385.85 55.32V56.52C385.85 60.28 386.53 63.48 387.89 66.12C389.33 68.68 391.25 70.64 393.65 72C396.13 73.28 398.89 73.92 401.93 73.92C406.49 73.92 409.93 72.76 412.25 70.44C414.65 68.04 416.17 64.92 416.81 61.08L431.45 64.56C430.41 68.8 428.61 72.68 426.05 76.2C423.57 79.64 420.29 82.36 416.21 84.36C412.13 86.36 407.25 87.36 401.57 87.36Z" fill="white"/>
<path d="M346.535 85.68V26.16H361.655V85.68H346.535ZM354.095 19.2C351.375 19.2 349.055 18.32 347.135 16.56C345.295 14.8 344.375 12.48 344.375 9.6C344.375 6.72 345.295 4.4 347.135 2.64C349.055 0.879998 351.375 0 354.095 0C356.895 0 359.215 0.879998 361.055 2.64C362.895 4.4 363.815 6.72 363.815 9.6C363.815 12.48 362.895 14.8 361.055 16.56C359.215 18.32 356.895 19.2 354.095 19.2Z" fill="white"/>
<path d="M298.814 87.3602C294.094 87.3602 289.654 86.2002 285.494 83.8802C281.414 81.4802 278.134 78.0002 275.654 73.4402C273.174 68.8802 271.934 63.3602 271.934 56.8802V54.9602C271.934 48.4802 273.174 42.9602 275.654 38.4002C278.134 33.8402 281.414 30.4002 285.494 28.0802C289.574 25.6802 294.014 24.4802 298.814 24.4802C302.414 24.4802 305.414 24.9202 307.814 25.8002C310.294 26.6002 312.294 27.6402 313.814 28.9202C315.334 30.2002 316.494 31.5602 317.294 33.0002H319.454V1.68018H334.574V85.6802H319.694V78.4802H317.534C316.174 80.7202 314.054 82.7602 311.174 84.6002C308.374 86.4402 304.254 87.3602 298.814 87.3602ZM303.374 74.1602C308.014 74.1602 311.894 72.6802 315.014 69.7202C318.134 66.6802 319.694 62.2802 319.694 56.5202V55.3202C319.694 49.5602 318.134 45.2002 315.014 42.2402C311.974 39.2002 308.094 37.6802 303.374 37.6802C298.734 37.6802 294.854 39.2002 291.734 42.2402C288.614 45.2002 287.054 49.5602 287.054 55.3202V56.5202C287.054 62.2802 288.614 66.6802 291.734 69.7202C294.854 72.6802 298.734 74.1602 303.374 74.1602Z" fill="white"/>
<path d="M234.454 87.36C228.534 87.36 223.214 86.16 218.494 83.76C213.774 81.36 210.054 77.88 207.334 73.32C204.614 68.76 203.254 63.28 203.254 56.88V54.96C203.254 48.56 204.614 43.08 207.334 38.52C210.054 33.96 213.774 30.48 218.494 28.08C223.214 25.68 228.534 24.48 234.454 24.48C240.374 24.48 245.694 25.68 250.414 28.08C255.134 30.48 258.854 33.96 261.574 38.52C264.294 43.08 265.654 48.56 265.654 54.96V56.88C265.654 63.28 264.294 68.76 261.574 73.32C258.854 77.88 255.134 81.36 250.414 83.76C245.694 86.16 240.374 87.36 234.454 87.36ZM234.454 73.92C239.094 73.92 242.934 72.44 245.974 69.48C249.014 66.44 250.534 62.12 250.534 56.52V55.32C250.534 49.72 249.014 45.44 245.974 42.48C243.014 39.44 239.174 37.92 234.454 37.92C229.814 37.92 225.974 39.44 222.934 42.48C219.894 45.44 218.374 49.72 218.374 55.32V56.52C218.374 62.12 219.894 66.44 222.934 69.48C225.974 72.44 229.814 73.92 234.454 73.92Z" fill="white"/>
<path d="M179.059 85.6802V1.68018H194.179V85.6802H179.059Z" fill="white"/>
<path d="M141.723 87.36C135.803 87.36 130.563 86.12 126.003 83.64C121.523 81.08 118.003 77.52 115.443 72.96C112.963 68.32 111.723 62.88 111.723 56.64V55.2C111.723 48.96 112.963 43.56 115.443 39C117.923 34.36 121.403 30.8 125.883 28.32C130.363 25.76 135.563 24.48 141.483 24.48C147.323 24.48 152.403 25.8 156.723 28.44C161.043 31 164.403 34.6 166.803 39.24C169.203 43.8 170.403 49.12 170.403 55.2V60.36H127.083C127.243 64.44 128.763 67.76 131.643 70.32C134.523 72.88 138.043 74.16 142.203 74.16C146.443 74.16 149.563 73.24 151.563 71.4C153.563 69.56 155.083 67.52 156.123 65.28L168.483 71.76C167.363 73.84 165.723 76.12 163.563 78.6C161.483 81 158.683 83.08 155.163 84.84C151.643 86.52 147.163 87.36 141.723 87.36ZM127.203 49.08H155.043C154.723 45.64 153.323 42.88 150.843 40.8C148.443 38.72 145.283 37.68 141.363 37.68C137.283 37.68 134.043 38.72 131.643 40.8C129.243 42.88 127.763 45.64 127.203 49.08Z" fill="white"/>
</svg>
