<svg width="411" height="66" viewBox="0 0 411 66" fill="none" xmlns="http://www.w3.org/2000/svg">
<path fill-rule="evenodd" clip-rule="evenodd" d="M19 1V64L21 64L21 1H19ZM24 1L24 64L30.4347 64V9.73H32.0427L42.7627 64H62.2373L72.9573 9.73H74.5653V64H86V1H64.1133L53.304 55.9H51.696L40.8867 1H24Z" fill="white"/>
<ellipse cx="13" cy="43" rx="4" ry="4" transform="rotate(-180 13 43)" fill="white"/>
<ellipse cx="13" cy="23" rx="4" ry="4" transform="rotate(-180 13 23)" fill="white"/>
<path d="M391.949 65.16C386.129 65.16 381.359 63.9 377.639 61.38C373.919 58.86 371.669 55.26 370.889 50.58L381.329 47.88C381.749 49.98 382.439 51.63 383.399 52.83C384.419 54.03 385.649 54.9 387.089 55.44C388.589 55.92 390.209 56.16 391.949 56.16C394.589 56.16 396.539 55.71 397.799 54.81C399.059 53.85 399.689 52.68 399.689 51.3C399.689 49.92 399.089 48.87 397.889 48.15C396.689 47.37 394.769 46.74 392.129 46.26L389.609 45.81C386.489 45.21 383.639 44.4 381.059 43.38C378.479 42.3 376.409 40.83 374.849 38.97C373.289 37.11 372.509 34.71 372.509 31.77C372.509 27.33 374.129 23.94 377.369 21.6C380.609 19.2 384.869 18 390.149 18C395.129 18 399.269 19.11 402.569 21.33C405.869 23.55 408.029 26.46 409.049 30.06L398.519 33.3C398.039 31.02 397.049 29.4 395.549 28.44C394.109 27.48 392.309 27 390.149 27C387.989 27 386.339 27.39 385.199 28.17C384.059 28.89 383.489 29.91 383.489 31.23C383.489 32.67 384.089 33.75 385.289 34.47C386.489 35.13 388.109 35.64 390.149 36L392.669 36.45C396.029 37.05 399.059 37.86 401.759 38.88C404.519 39.84 406.679 41.25 408.239 43.11C409.859 44.91 410.669 47.37 410.669 50.49C410.669 55.17 408.959 58.8 405.539 61.38C402.179 63.9 397.649 65.16 391.949 65.16Z" fill="white"/>
<path d="M341.059 64.36C337.579 64.36 334.519 63.58 331.879 62.02C329.299 60.4 327.289 58.18 325.849 55.36C324.409 52.54 323.689 49.3 323.689 45.64V19H335.029V44.74C335.029 48.1 335.839 50.62 337.459 52.3C339.139 53.98 341.509 54.82 344.569 54.82C348.049 54.82 350.749 53.68 352.669 51.4C354.589 49.06 355.549 45.82 355.549 41.68V19H366.889V63.64H355.729V57.79H354.109C353.389 59.29 352.039 60.76 350.059 62.2C348.079 63.64 345.079 64.36 341.059 64.36Z" fill="white"/>
<path d="M297.28 65.16C292.96 65.16 289.03 64.26 285.49 62.46C282.01 60.66 279.25 58.05 277.21 54.63C275.17 51.21 274.15 47.07 274.15 42.21V40.95C274.15 36.09 275.17 31.95 277.21 28.53C279.25 25.11 282.01 22.5 285.49 20.7C289.03 18.9 292.96 18 297.28 18C301.54 18 305.2 18.75 308.26 20.25C311.32 21.75 313.78 23.82 315.64 26.46C317.56 29.04 318.82 31.98 319.42 35.28L308.44 37.62C308.2 35.82 307.66 34.2 306.82 32.76C305.98 31.32 304.78 30.18 303.22 29.34C301.72 28.5 299.83 28.08 297.55 28.08C295.27 28.08 293.2 28.59 291.34 29.61C289.54 30.57 288.1 32.04 287.02 34.02C286 35.94 285.49 38.31 285.49 41.13V42.03C285.49 44.85 286 47.25 287.02 49.23C288.1 51.15 289.54 52.62 291.34 53.64C293.2 54.6 295.27 55.08 297.55 55.08C300.97 55.08 303.55 54.21 305.29 52.47C307.09 50.67 308.23 48.33 308.71 45.45L319.69 48.06C318.91 51.24 317.56 54.15 315.64 56.79C313.78 59.37 311.32 61.41 308.26 62.91C305.2 64.41 301.54 65.16 297.28 65.16Z" fill="white"/>
<path d="M257.19 64.26V19.62H268.53V64.26H257.19ZM262.86 14.4C260.82 14.4 259.08 13.74 257.64 12.42C256.26 11.1 255.57 9.36 255.57 7.2C255.57 5.04 256.26 3.3 257.64 1.98C259.08 0.660001 260.82 0 262.86 0C264.96 0 266.7 0.660001 268.08 1.98C269.46 3.3 270.15 5.04 270.15 7.2C270.15 9.36 269.46 11.1 268.08 12.42C266.7 13.74 264.96 14.4 262.86 14.4Z" fill="white"/>
<path d="M224.75 65.26C221.21 65.26 217.88 64.39 214.76 62.65C211.7 60.85 209.24 58.24 207.38 54.82C205.52 51.4 204.59 47.26 204.59 42.4V40.96C204.59 36.1 205.52 31.96 207.38 28.54C209.24 25.12 211.7 22.54 214.76 20.8C217.82 19 221.15 18.1 224.75 18.1C227.45 18.1 229.7 18.43 231.5 19.09C233.36 19.69 234.86 20.47 236 21.43C237.14 22.39 238.01 23.41 238.61 24.49H240.23V1H251.57V64H240.41V58.6H238.79C237.77 60.28 236.18 61.81 234.02 63.19C231.92 64.57 228.83 65.26 224.75 65.26ZM228.17 55.36C231.65 55.36 234.56 54.25 236.9 52.03C239.24 49.75 240.41 46.45 240.41 42.13V41.23C240.41 36.91 239.24 33.64 236.9 31.42C234.62 29.14 231.71 28 228.17 28C224.69 28 221.78 29.14 219.44 31.42C217.1 33.64 215.93 36.91 215.93 41.23V42.13C215.93 46.45 217.1 49.75 219.44 52.03C221.78 54.25 224.69 55.36 228.17 55.36Z" fill="white"/>
<path d="M177.189 65.16C172.749 65.16 168.759 64.26 165.219 62.46C161.679 60.66 158.889 58.05 156.849 54.63C154.809 51.21 153.789 47.1 153.789 42.3V40.86C153.789 36.06 154.809 31.95 156.849 28.53C158.889 25.11 161.679 22.5 165.219 20.7C168.759 18.9 172.749 18 177.189 18C181.629 18 185.619 18.9 189.159 20.7C192.699 22.5 195.489 25.11 197.529 28.53C199.569 31.95 200.589 36.06 200.589 40.86V42.3C200.589 47.1 199.569 51.21 197.529 54.63C195.489 58.05 192.699 60.66 189.159 62.46C185.619 64.26 181.629 65.16 177.189 65.16ZM177.189 55.08C180.669 55.08 183.549 53.97 185.829 51.75C188.109 49.47 189.249 46.23 189.249 42.03V41.13C189.249 36.93 188.109 33.72 185.829 31.5C183.609 29.22 180.729 28.08 177.189 28.08C173.709 28.08 170.829 29.22 168.549 31.5C166.269 33.72 165.129 36.93 165.129 41.13V42.03C165.129 46.23 166.269 49.47 168.549 51.75C170.829 53.97 173.709 55.08 177.189 55.08Z" fill="white"/>
<path d="M138.449 64V1H149.789V64H138.449Z" fill="white"/>
<path d="M112.939 65.16C108.499 65.16 104.569 64.23 101.149 62.37C97.7895 60.45 95.1495 57.78 93.2295 54.36C91.3695 50.88 90.4395 46.8 90.4395 42.12V41.04C90.4395 36.36 91.3695 32.31 93.2295 28.89C95.0895 25.41 97.6995 22.74 101.059 20.88C104.419 18.96 108.319 18 112.759 18C117.139 18 120.949 18.99 124.189 20.97C127.429 22.89 129.949 25.59 131.749 29.07C133.549 32.49 134.449 36.48 134.449 41.04V44.91H101.959C102.079 47.97 103.219 50.46 105.379 52.38C107.539 54.3 110.179 55.26 113.299 55.26C116.479 55.26 118.819 54.57 120.319 53.19C121.819 51.81 122.959 50.28 123.739 48.6L133.009 53.46C132.169 55.02 130.939 56.73 129.319 58.59C127.759 60.39 125.659 61.95 123.019 63.27C120.379 64.53 117.019 65.16 112.939 65.16ZM102.049 36.45H122.929C122.689 33.87 121.639 31.8 119.779 30.24C117.979 28.68 115.609 27.9 112.669 27.9C109.609 27.9 107.179 28.68 105.379 30.24C103.579 31.8 102.469 33.87 102.049 36.45Z" fill="white"/>
</svg>
