<svg width="504" height="80" viewBox="0 0 504 80" fill="none" xmlns="http://www.w3.org/2000/svg">
<path d="M502.72 38.8884L488.459 39.7631C488.215 38.5482 487.691 37.4548 486.886 36.4829C486.082 35.4867 485.021 34.697 483.705 34.1138C482.413 33.5064 480.865 33.2027 479.061 33.2027C476.647 33.2027 474.612 33.7129 472.954 34.7334C471.296 35.7296 470.467 37.066 470.467 38.7426C470.467 40.0789 471.004 41.2088 472.076 42.1321C473.149 43.0554 474.99 43.7965 477.598 44.3553L487.764 46.3964C493.225 47.514 497.296 49.3121 499.977 51.7905C502.659 54.2688 504 57.5247 504 61.5581C504 65.2271 502.915 68.4466 500.745 71.2165C498.6 73.9864 495.65 76.1489 491.896 77.704C488.166 79.2347 483.863 80.0001 478.988 80.0001C471.552 80.0001 465.628 78.4572 461.216 75.3714C456.828 72.2613 454.256 68.0335 453.5 62.688L468.822 61.8862C469.285 64.1459 470.406 65.871 472.186 67.0616C473.966 68.2279 476.245 68.811 479.024 68.811C481.755 68.811 483.949 68.2886 485.606 67.2438C487.288 66.1747 488.142 64.8019 488.166 63.1253C488.142 61.7161 487.544 60.5619 486.374 59.6629C485.204 58.7396 483.4 58.035 480.962 57.549L471.235 55.6173C465.75 54.5239 461.667 52.6287 458.985 49.9317C456.328 47.2346 454.999 43.7965 454.999 39.6173C454.999 36.0212 455.974 32.9233 457.925 30.3234C459.899 27.7235 462.666 25.719 466.225 24.3097C469.809 22.9004 474.002 22.1958 478.805 22.1958C485.899 22.1958 491.482 23.6901 495.553 26.6787C499.648 29.6674 502.037 33.7372 502.72 38.8884Z" fill="#FAF9F6"/>
<path d="M431.039 55.0707V22.9248H446.616V78.9068H431.66V68.7382H431.075C429.807 72.0184 427.699 74.6547 424.749 76.6471C421.824 78.6395 418.252 79.6357 414.035 79.6357C410.28 79.6357 406.977 78.7853 404.125 77.0845C401.273 75.3836 399.042 72.966 397.433 69.8316C395.848 66.6972 395.044 62.9432 395.02 58.5696V22.9248H410.597V55.7997C410.622 59.1041 411.512 61.7162 413.267 63.6357C415.022 65.5552 417.374 66.515 420.324 66.515C422.201 66.515 423.957 66.0897 425.59 65.2393C427.223 64.3646 428.54 63.0768 429.539 61.376C430.563 59.6751 431.063 57.5734 431.039 55.0707Z" fill="#FAF9F6"/>
<path d="M363.051 80.0001C357.298 80.0001 352.349 78.7852 348.205 76.3555C344.085 73.9014 340.916 70.4997 338.697 66.1504C336.503 61.8011 335.406 56.7958 335.406 51.1344C335.406 45.4001 336.515 40.3705 338.734 36.0455C340.977 31.6962 344.158 28.3067 348.278 25.8769C352.398 23.4228 357.298 22.1958 362.978 22.1958C367.878 22.1958 372.169 23.0827 375.85 24.8564C379.531 26.6301 382.444 29.1207 384.59 32.328C386.735 35.5353 387.917 39.3014 388.137 43.6264H373.437C373.022 40.8322 371.925 38.5846 370.145 36.8838C368.39 35.1586 366.086 34.2961 363.234 34.2961C360.821 34.2961 358.712 34.9521 356.908 36.2642C355.128 37.552 353.739 39.435 352.739 41.9134C351.74 44.3918 351.24 47.3926 351.24 50.9157C351.24 54.4875 351.728 57.5247 352.703 60.0274C353.702 62.5301 355.104 64.4374 356.908 65.7495C358.712 67.0616 360.821 67.7176 363.234 67.7176C365.014 67.7176 366.611 67.3532 368.025 66.6242C369.463 65.8953 370.645 64.8383 371.572 63.4534C372.522 62.0441 373.144 60.3554 373.437 58.3873H388.137C387.893 62.6637 386.723 66.4298 384.626 69.6857C382.554 72.9173 379.69 75.4443 376.033 77.2666C372.376 79.089 368.049 80.0001 363.051 80.0001Z" fill="#FAF9F6"/>
<path d="M312.702 78.9069V22.9249H328.28V78.9069H312.702ZM320.528 15.7085C318.212 15.7085 316.225 14.9431 314.567 13.4124C312.934 11.8573 312.117 9.99852 312.117 7.83602C312.117 5.69782 312.934 3.86334 314.567 2.33259C316.225 0.77753 318.212 0 320.528 0C322.844 0 324.818 0.77753 326.452 2.33259C328.109 3.86334 328.938 5.69782 328.938 7.83602C328.938 9.99852 328.109 11.8573 326.452 13.4124C324.818 14.9431 322.844 15.7085 320.528 15.7085Z" fill="#FAF9F6"/>
<path d="M271.024 79.818C266.758 79.818 262.894 78.7246 259.432 76.5378C255.995 74.3267 253.264 71.083 251.241 66.8066C249.242 62.5059 248.242 57.2332 248.242 50.9887C248.242 44.5741 249.278 39.2408 251.35 34.9887C253.423 30.7123 256.177 27.5171 259.615 25.4032C263.076 23.265 266.867 22.1959 270.987 22.1959C274.132 22.1959 276.753 22.7304 278.849 23.7995C280.97 24.8443 282.677 26.1564 283.969 27.7358C285.285 29.2908 286.285 30.8216 286.967 32.3281H287.443V4.26416H302.984V78.9068H287.625V69.941H286.967C286.236 71.496 285.2 73.0389 283.859 74.5697C282.543 76.0761 280.824 77.3275 278.703 78.3237C276.606 79.3199 274.047 79.818 271.024 79.818ZM275.96 67.4626C278.471 67.4626 280.592 66.7823 282.323 65.4216C284.078 64.0366 285.419 62.1049 286.346 59.6266C287.296 57.1482 287.772 54.2446 287.772 50.9158C287.772 47.587 287.309 44.6956 286.382 42.2415C285.456 39.7875 284.115 37.8922 282.36 36.5559C280.604 35.2195 278.471 34.5513 275.96 34.5513C273.401 34.5513 271.243 35.2438 269.488 36.6288C267.733 38.0137 266.404 39.9332 265.502 42.3873C264.6 44.8414 264.149 47.6842 264.149 50.9158C264.149 54.1717 264.6 57.051 265.502 59.5537C266.428 62.032 267.757 63.9759 269.488 65.3851C271.243 66.7701 273.401 67.4626 275.96 67.4626Z" fill="#FAF9F6"/>
<path d="M215.641 80.0001C209.961 80.0001 205.049 78.7974 200.904 76.3919C196.785 73.9621 193.603 70.5848 191.36 66.2598C189.117 61.9105 187.996 56.8687 187.996 51.1344C187.996 45.3515 189.117 40.2976 191.36 35.9726C193.603 31.6233 196.785 28.2459 200.904 25.8405C205.049 23.4107 209.961 22.1958 215.641 22.1958C221.321 22.1958 226.221 23.4107 230.341 25.8405C234.486 28.2459 237.679 31.6233 239.922 35.9726C242.165 40.2976 243.286 45.3515 243.286 51.1344C243.286 56.8687 242.165 61.9105 239.922 66.2598C237.679 70.5848 234.486 73.9621 230.341 76.3919C226.221 78.7974 221.321 80.0001 215.641 80.0001ZM215.714 67.9727C218.298 67.9727 220.456 67.2438 222.187 65.786C223.918 64.3038 225.222 62.2871 226.1 59.7358C227.002 57.1845 227.453 54.281 227.453 51.0251C227.453 47.7692 227.002 44.8656 226.1 42.3143C225.222 39.7631 223.918 37.7464 222.187 36.2642C220.456 34.782 218.298 34.0409 215.714 34.0409C213.106 34.0409 210.912 34.782 209.132 36.2642C207.377 37.7464 206.048 39.7631 205.146 42.3143C204.269 44.8656 203.83 47.7692 203.83 51.0251C203.83 54.281 204.269 57.1845 205.146 59.7358C206.048 62.2871 207.377 64.3038 209.132 65.786C210.912 67.2438 213.106 67.9727 215.714 67.9727Z" fill="#FAF9F6"/>
<path d="M180.871 4.26416V78.9068H165.293V4.26416H180.871Z" fill="#FAF9F6"/>
<path d="M132.439 80.0001C126.661 80.0001 121.688 78.8338 117.519 76.5013C113.375 74.1444 110.181 70.8156 107.938 66.5149C105.696 62.1899 104.574 57.0752 104.574 51.1709C104.574 45.4123 105.696 40.3584 107.938 36.0091C110.181 31.6598 113.338 28.2702 117.409 25.8405C121.505 23.4107 126.308 22.1958 131.817 22.1958C135.523 22.1958 138.972 22.7911 142.166 23.9817C145.384 25.148 148.187 26.9096 150.576 29.2664C152.99 31.6233 154.867 34.5876 156.208 38.1594C157.548 41.7069 158.219 45.8618 158.219 50.6242V54.8884H110.791V45.2665H143.555C143.555 43.0311 143.068 41.0508 142.093 39.3257C141.117 37.6006 139.764 36.252 138.034 35.2801C136.327 34.2839 134.34 33.7858 132.073 33.7858C129.708 33.7858 127.612 34.3325 125.783 35.4259C123.979 36.495 122.565 37.9407 121.542 39.7631C120.518 41.5611 119.994 43.5657 119.969 45.7768V54.9249C119.969 57.6948 120.481 60.0881 121.505 62.1048C122.553 64.1216 124.028 65.6766 125.93 66.77C127.831 67.8634 130.086 68.4101 132.695 68.4101C134.426 68.4101 136.01 68.1671 137.448 67.6812C138.887 67.1952 140.118 66.4663 141.142 65.4944C142.166 64.5225 142.946 63.3319 143.482 61.9226L157.89 62.8702C157.158 66.3205 155.659 69.3334 153.392 71.909C151.149 74.4602 148.248 76.4527 144.689 77.8862C141.154 79.2955 137.071 80.0001 132.439 80.0001Z" fill="#FAF9F6"/>
<path d="M20 78.9072H16V4.26465H20V78.9072ZM56.1514 54.415H57.0293L77.6533 4.26465H97.1797V78.9072H81.8213V30.3232H81.2002L61.8193 78.542H51.3613L31.9805 30.1416H31.3584V78.9072H24V4.26465H35.5273L56.1514 54.415Z" fill="#FAF9F6"/>
<circle cx="6" cy="24" r="6" fill="#FAF9F6"/>
<circle cx="6" cy="59" r="6" fill="#FAF9F6"/>
</svg>
